<mxfile host="app.diagrams.net" modified="2023-03-01T07:11:34.784Z" agent="5.0 (Macintosh; Intel Mac OS X 10_15_7) AppleWebKit/537.36 (KHTML, like Gecko) Chrome/109.0.0.0 Safari/537.36" etag="Vo6TiST-SoLglXwRKFNW" version="20.8.23" type="github">
  <diagram name="Page-1" id="9361dd3d-8414-5efd-6122-117bd74ce7a7">
    <mxGraphModel dx="954" dy="962" grid="1" gridSize="10" guides="1" tooltips="1" connect="1" arrows="1" fold="1" page="0" pageScale="1.5" pageWidth="826" pageHeight="1169" background="none" math="0" shadow="0">
      <root>
        <mxCell id="0" />
        <mxCell id="1" parent="0" />
        <mxCell id="fHARhZCniGBvfQrhCBJ2-90" value="应用系统单点登录" style="swimlane;html=1;childLayout=stackLayout;startSize=20;rounded=0;shadow=0;labelBackgroundColor=none;strokeWidth=1;fontFamily=Verdana;fontSize=8;align=center;" vertex="1" parent="1">
          <mxGeometry x="220" y="-30" width="610" height="740" as="geometry" />
        </mxCell>
        <mxCell id="fHARhZCniGBvfQrhCBJ2-91" value="PC端" style="swimlane;html=1;startSize=20;" vertex="1" parent="fHARhZCniGBvfQrhCBJ2-90">
          <mxGeometry y="20" width="190" height="720" as="geometry" />
        </mxCell>
        <mxCell id="fHARhZCniGBvfQrhCBJ2-92" value="用户登录" style="rounded=1;whiteSpace=wrap;html=1;" vertex="1" parent="fHARhZCniGBvfQrhCBJ2-91">
          <mxGeometry x="30" y="40" width="120" height="40" as="geometry" />
        </mxCell>
        <mxCell id="fHARhZCniGBvfQrhCBJ2-106" value="访问应用系统" style="rounded=1;whiteSpace=wrap;html=1;" vertex="1" parent="fHARhZCniGBvfQrhCBJ2-91">
          <mxGeometry x="30" y="100" width="120" height="40" as="geometry" />
        </mxCell>
        <mxCell id="fHARhZCniGBvfQrhCBJ2-94" value="教育平台" style="swimlane;html=1;startSize=20;" vertex="1" parent="fHARhZCniGBvfQrhCBJ2-90">
          <mxGeometry x="190" y="20" width="220" height="720" as="geometry" />
        </mxCell>
        <mxCell id="fHARhZCniGBvfQrhCBJ2-96" value="用户登录" style="rounded=1;whiteSpace=wrap;html=1;" vertex="1" parent="fHARhZCniGBvfQrhCBJ2-94">
          <mxGeometry x="50" y="40" width="120" height="40" as="geometry" />
        </mxCell>
        <mxCell id="fHARhZCniGBvfQrhCBJ2-115" style="edgeStyle=orthogonalEdgeStyle;rounded=0;orthogonalLoop=1;jettySize=auto;html=1;entryX=0.5;entryY=0;entryDx=0;entryDy=0;" edge="1" parent="fHARhZCniGBvfQrhCBJ2-94" source="fHARhZCniGBvfQrhCBJ2-111" target="fHARhZCniGBvfQrhCBJ2-114">
          <mxGeometry relative="1" as="geometry" />
        </mxCell>
        <mxCell id="fHARhZCniGBvfQrhCBJ2-111" value="解析token" style="rounded=1;whiteSpace=wrap;html=1;" vertex="1" parent="fHARhZCniGBvfQrhCBJ2-94">
          <mxGeometry x="60" y="180" width="120" height="40" as="geometry" />
        </mxCell>
        <mxCell id="fHARhZCniGBvfQrhCBJ2-117" value="是、绑定用户填写账号" style="edgeStyle=orthogonalEdgeStyle;rounded=0;orthogonalLoop=1;jettySize=auto;html=1;entryX=0.5;entryY=0;entryDx=0;entryDy=0;" edge="1" parent="fHARhZCniGBvfQrhCBJ2-94" source="fHARhZCniGBvfQrhCBJ2-114" target="fHARhZCniGBvfQrhCBJ2-116">
          <mxGeometry x="-0.4286" y="30" relative="1" as="geometry">
            <mxPoint as="offset" />
          </mxGeometry>
        </mxCell>
        <mxCell id="fHARhZCniGBvfQrhCBJ2-118" value="否、绑定当前账号" style="edgeStyle=orthogonalEdgeStyle;rounded=0;orthogonalLoop=1;jettySize=auto;html=1;entryX=0;entryY=0.5;entryDx=0;entryDy=0;exitX=0;exitY=0.5;exitDx=0;exitDy=0;" edge="1" parent="fHARhZCniGBvfQrhCBJ2-94" source="fHARhZCniGBvfQrhCBJ2-114" target="fHARhZCniGBvfQrhCBJ2-116">
          <mxGeometry x="-0.2571" y="-10" relative="1" as="geometry">
            <Array as="points">
              <mxPoint x="30" y="275" />
              <mxPoint x="30" y="360" />
            </Array>
            <mxPoint as="offset" />
          </mxGeometry>
        </mxCell>
        <mxCell id="fHARhZCniGBvfQrhCBJ2-114" value="是否绑定账号" style="rhombus;whiteSpace=wrap;html=1;fillColor=#FFFFFF;" vertex="1" parent="fHARhZCniGBvfQrhCBJ2-94">
          <mxGeometry x="80" y="250" width="80" height="50" as="geometry" />
        </mxCell>
        <mxCell id="fHARhZCniGBvfQrhCBJ2-116" value="返回用户信息" style="rounded=1;whiteSpace=wrap;html=1;" vertex="1" parent="fHARhZCniGBvfQrhCBJ2-94">
          <mxGeometry x="60" y="340" width="120" height="40" as="geometry" />
        </mxCell>
        <mxCell id="fHARhZCniGBvfQrhCBJ2-126" value="绑定账号存储" style="rounded=1;whiteSpace=wrap;html=1;" vertex="1" parent="fHARhZCniGBvfQrhCBJ2-94">
          <mxGeometry x="50" y="480" width="120" height="40" as="geometry" />
        </mxCell>
        <mxCell id="fHARhZCniGBvfQrhCBJ2-105" style="edgeStyle=orthogonalEdgeStyle;rounded=0;orthogonalLoop=1;jettySize=auto;html=1;" edge="1" parent="fHARhZCniGBvfQrhCBJ2-90" source="fHARhZCniGBvfQrhCBJ2-92" target="fHARhZCniGBvfQrhCBJ2-96">
          <mxGeometry relative="1" as="geometry" />
        </mxCell>
        <mxCell id="fHARhZCniGBvfQrhCBJ2-107" style="edgeStyle=orthogonalEdgeStyle;rounded=0;orthogonalLoop=1;jettySize=auto;html=1;entryX=1;entryY=0.5;entryDx=0;entryDy=0;exitX=0.5;exitY=1;exitDx=0;exitDy=0;" edge="1" parent="fHARhZCniGBvfQrhCBJ2-90" source="fHARhZCniGBvfQrhCBJ2-96" target="fHARhZCniGBvfQrhCBJ2-106">
          <mxGeometry relative="1" as="geometry" />
        </mxCell>
        <mxCell id="fHARhZCniGBvfQrhCBJ2-109" style="edgeStyle=orthogonalEdgeStyle;rounded=0;orthogonalLoop=1;jettySize=auto;html=1;entryX=0;entryY=0.5;entryDx=0;entryDy=0;exitX=0.5;exitY=1;exitDx=0;exitDy=0;" edge="1" parent="fHARhZCniGBvfQrhCBJ2-90" source="fHARhZCniGBvfQrhCBJ2-106" target="fHARhZCniGBvfQrhCBJ2-108">
          <mxGeometry relative="1" as="geometry" />
        </mxCell>
        <mxCell id="fHARhZCniGBvfQrhCBJ2-110" value="携带token" style="edgeLabel;html=1;align=center;verticalAlign=middle;resizable=0;points=[];" vertex="1" connectable="0" parent="fHARhZCniGBvfQrhCBJ2-109">
          <mxGeometry x="-0.0205" y="1" relative="1" as="geometry">
            <mxPoint x="49" y="1" as="offset" />
          </mxGeometry>
        </mxCell>
        <mxCell id="fHARhZCniGBvfQrhCBJ2-112" style="edgeStyle=orthogonalEdgeStyle;rounded=0;orthogonalLoop=1;jettySize=auto;html=1;entryX=1;entryY=0.5;entryDx=0;entryDy=0;exitX=0.5;exitY=1;exitDx=0;exitDy=0;" edge="1" parent="fHARhZCniGBvfQrhCBJ2-90" source="fHARhZCniGBvfQrhCBJ2-108" target="fHARhZCniGBvfQrhCBJ2-111">
          <mxGeometry relative="1" as="geometry" />
        </mxCell>
        <mxCell id="fHARhZCniGBvfQrhCBJ2-113" value="token、appid、appkey" style="edgeLabel;html=1;align=center;verticalAlign=middle;resizable=0;points=[];" vertex="1" connectable="0" parent="fHARhZCniGBvfQrhCBJ2-112">
          <mxGeometry x="0.1619" y="2" relative="1" as="geometry">
            <mxPoint as="offset" />
          </mxGeometry>
        </mxCell>
        <mxCell id="fHARhZCniGBvfQrhCBJ2-120" style="edgeStyle=orthogonalEdgeStyle;rounded=0;orthogonalLoop=1;jettySize=auto;html=1;" edge="1" parent="fHARhZCniGBvfQrhCBJ2-90" source="fHARhZCniGBvfQrhCBJ2-116" target="fHARhZCniGBvfQrhCBJ2-119">
          <mxGeometry relative="1" as="geometry" />
        </mxCell>
        <mxCell id="fHARhZCniGBvfQrhCBJ2-129" value="redirect_uri" style="edgeStyle=orthogonalEdgeStyle;rounded=0;orthogonalLoop=1;jettySize=auto;html=1;entryX=1;entryY=0.5;entryDx=0;entryDy=0;" edge="1" parent="fHARhZCniGBvfQrhCBJ2-90" source="fHARhZCniGBvfQrhCBJ2-127" target="fHARhZCniGBvfQrhCBJ2-126">
          <mxGeometry relative="1" as="geometry" />
        </mxCell>
        <mxCell id="fHARhZCniGBvfQrhCBJ2-101" value="应用系统" style="swimlane;html=1;startSize=20;" vertex="1" parent="fHARhZCniGBvfQrhCBJ2-90">
          <mxGeometry x="410" y="20" width="200" height="720" as="geometry" />
        </mxCell>
        <mxCell id="fHARhZCniGBvfQrhCBJ2-108" value="访问应用系统" style="rounded=1;whiteSpace=wrap;html=1;" vertex="1" parent="fHARhZCniGBvfQrhCBJ2-101">
          <mxGeometry x="40" y="140" width="120" height="40" as="geometry" />
        </mxCell>
        <mxCell id="fHARhZCniGBvfQrhCBJ2-122" style="edgeStyle=orthogonalEdgeStyle;rounded=0;orthogonalLoop=1;jettySize=auto;html=1;" edge="1" parent="fHARhZCniGBvfQrhCBJ2-101" source="fHARhZCniGBvfQrhCBJ2-119" target="fHARhZCniGBvfQrhCBJ2-121">
          <mxGeometry relative="1" as="geometry" />
        </mxCell>
        <mxCell id="fHARhZCniGBvfQrhCBJ2-119" value="本地账号校验" style="rounded=1;whiteSpace=wrap;html=1;" vertex="1" parent="fHARhZCniGBvfQrhCBJ2-101">
          <mxGeometry x="40" y="340" width="120" height="40" as="geometry" />
        </mxCell>
        <mxCell id="fHARhZCniGBvfQrhCBJ2-124" style="edgeStyle=orthogonalEdgeStyle;rounded=0;orthogonalLoop=1;jettySize=auto;html=1;entryX=1;entryY=0.5;entryDx=0;entryDy=0;exitX=1;exitY=0.5;exitDx=0;exitDy=0;" edge="1" parent="fHARhZCniGBvfQrhCBJ2-101" source="fHARhZCniGBvfQrhCBJ2-121" target="fHARhZCniGBvfQrhCBJ2-123">
          <mxGeometry relative="1" as="geometry" />
        </mxCell>
        <mxCell id="fHARhZCniGBvfQrhCBJ2-125" value="是，生成登录态" style="edgeLabel;html=1;align=center;verticalAlign=middle;resizable=0;points=[];" vertex="1" connectable="0" parent="fHARhZCniGBvfQrhCBJ2-124">
          <mxGeometry x="-0.0537" y="-1" relative="1" as="geometry">
            <mxPoint y="97" as="offset" />
          </mxGeometry>
        </mxCell>
        <mxCell id="fHARhZCniGBvfQrhCBJ2-128" style="edgeStyle=orthogonalEdgeStyle;rounded=0;orthogonalLoop=1;jettySize=auto;html=1;entryX=0.5;entryY=0;entryDx=0;entryDy=0;" edge="1" parent="fHARhZCniGBvfQrhCBJ2-101" source="fHARhZCniGBvfQrhCBJ2-121" target="fHARhZCniGBvfQrhCBJ2-127">
          <mxGeometry relative="1" as="geometry" />
        </mxCell>
        <mxCell id="fHARhZCniGBvfQrhCBJ2-121" value="是否已绑定" style="rhombus;whiteSpace=wrap;html=1;fillColor=#FFFFFF;" vertex="1" parent="fHARhZCniGBvfQrhCBJ2-101">
          <mxGeometry x="60" y="400" width="80" height="60" as="geometry" />
        </mxCell>
        <mxCell id="fHARhZCniGBvfQrhCBJ2-123" value="业务交互" style="rounded=1;whiteSpace=wrap;html=1;" vertex="1" parent="fHARhZCniGBvfQrhCBJ2-101">
          <mxGeometry x="50" y="620" width="120" height="40" as="geometry" />
        </mxCell>
        <mxCell id="fHARhZCniGBvfQrhCBJ2-127" value="账号绑定" style="rounded=1;whiteSpace=wrap;html=1;" vertex="1" parent="fHARhZCniGBvfQrhCBJ2-101">
          <mxGeometry x="40" y="480" width="120" height="40" as="geometry" />
        </mxCell>
        <mxCell id="fHARhZCniGBvfQrhCBJ2-130" value="重定向地址" style="rounded=1;whiteSpace=wrap;html=1;" vertex="1" parent="fHARhZCniGBvfQrhCBJ2-101">
          <mxGeometry x="50" y="550" width="120" height="40" as="geometry" />
        </mxCell>
        <mxCell id="fHARhZCniGBvfQrhCBJ2-131" style="edgeStyle=orthogonalEdgeStyle;rounded=0;orthogonalLoop=1;jettySize=auto;html=1;entryX=0;entryY=0.5;entryDx=0;entryDy=0;exitX=0.5;exitY=1;exitDx=0;exitDy=0;dashed=1;" edge="1" parent="fHARhZCniGBvfQrhCBJ2-90" source="fHARhZCniGBvfQrhCBJ2-126" target="fHARhZCniGBvfQrhCBJ2-130">
          <mxGeometry relative="1" as="geometry" />
        </mxCell>
        <mxCell id="fHARhZCniGBvfQrhCBJ2-132" value="携带token" style="edgeLabel;html=1;align=center;verticalAlign=middle;resizable=0;points=[];" vertex="1" connectable="0" parent="fHARhZCniGBvfQrhCBJ2-131">
          <mxGeometry x="0.14" y="2" relative="1" as="geometry">
            <mxPoint as="offset" />
          </mxGeometry>
        </mxCell>
        <mxCell id="fHARhZCniGBvfQrhCBJ2-134" style="edgeStyle=orthogonalEdgeStyle;rounded=0;orthogonalLoop=1;jettySize=auto;html=1;exitX=1;exitY=0.5;exitDx=0;exitDy=0;entryX=1;entryY=0.5;entryDx=0;entryDy=0;" edge="1" parent="fHARhZCniGBvfQrhCBJ2-90" source="fHARhZCniGBvfQrhCBJ2-130" target="fHARhZCniGBvfQrhCBJ2-111">
          <mxGeometry relative="1" as="geometry">
            <mxPoint x="380" y="260" as="targetPoint" />
            <Array as="points">
              <mxPoint x="690" y="590" />
              <mxPoint x="690" y="230" />
              <mxPoint x="370" y="230" />
            </Array>
          </mxGeometry>
        </mxCell>
      </root>
    </mxGraphModel>
  </diagram>
</mxfile>
